<svg t="1725183990165" class="icon" viewBox="0 0 1099 1024" version="1.1" xmlns="http://www.w3.org/2000/svg" p-id="8455" width="16" height="16"><path d="M1077.278465 761.869174c12.924263-66.966297-15.842067-213.017626-83.50649-254.1891-16.7729-10.185465-22.483205-27.191073-66.697787-41.028269a8.538606 8.538606 0 0 0-1.163542-0.30431c-20.94375-3.830737-91.454374 8.538606-122.834197 28.050304-7.661474 4.76157 93.333941-108.871697 102.391665-136.205976a10.740384 10.740384 0 0 1 1.145641-2.488189c15.484054-23.270833 15.64516-130.048156 8.950321-147.76979-16.844503-45.145416-69.633493-97.236281-142.650207-136.04487-77.09806-41.028269-179.221216-60.307259-257.035301-27.692292-37.179631 15.680961-104.647146 70.474823-126.324823 151.11721-1.790064 6.408429-5.531298 57.514759-7.303461 85.403957-0.465417 7.070753-1.467853 14.034102-4.636266 7.697276-26.564551-52.824791-135.239341-57.282051-161.410078-57.586362-52.377275-0.608622-138.998476 59.412227-167.943812 139.034278-47.544102 130.817883-16.110577 172.132562 4.815272 192.610895 24.702884 24.183766 55.116073 70.170512 100.440496 84.276217 31.702035 9.881154 20.746843-19.690705 51.249534-6.587436 8.431202 3.580128-5.620801 53.057499-14.445817 86.04838-31.898942 119.182467 36.069791 167.299389 51.088429 186.363572 26.958365 34.208125 110.232146 61.524502 134.899229 65.749053 44.751602 7.625673 126.790239 2.452388 179.973043-22.91282 4.439359-2.112276 92.259903-2.953606 76.453637-134.165303 5.370192 57.282051 46.64907 103.823717 60.862179 113.221553 57.657964 38.110464 57.801169 38.969695 195.313892 20.94375 132.070928-17.30992 182.872947-165.133412 188.368443-193.541728z" fill="#FFFFFF" p-id="8456"></path><path d="M891.004397 205.767866c-5.799808-11.349006-19.368493-36.499407-23.897356-46.541666 19.207388 42.281314 24.147964 98.05971 14.982836 143.760046A182.371729 182.371729 0 0 1 855.650631 368.001374c-13.031667 19.690705-46.308958 61.900416-53.039599 85.332355 11.903926-7.160256 33.868012-44.751602 46.308958-51.482243 12.082933-6.587436 40.741858-22.375801 47.168189-35.47907 10.579279-21.480769 12.082933-28.444118 12.530448-53.487115 0.214808-14.51742-4.027644-29.05274-2.935705-43.516458 1.467853-20.156122-4.385657-43.444855-14.678525-63.600977zM182.550735 620.794223c-27.549086-4.385657-30.252083-5.889311-49.853285-11.205801-15.394551-4.18875-29.625561-14.821731-46.541666-24.810288-6.623237-3.90234 33.79641 33.51 41.368381 35.407468 23.002323 5.781907 19.690705 15.108141 38.575881 19.404294 16.110577 3.669631 13.443381-16.898205 29.87617-15.949471 7.750977 0.447516-5.746106-1.611058-13.425481-2.846202zM1030.880004 595.411115c-20.281426-44.232483-60.522067-114.062883-135.293043-119.379374-7.697276-0.55492-119.504678 22.053589-89.735913 21.677676 79.156634-0.966635 152.030142 28.014503 193.326921 98.220816 37.949359 64.442307 55.491987 164.8112 35.801282 243.108603a2.667195 2.667195 0 0 0 4.600464 2.058574c38.898092-41.61899 25.311506-104.557643 21.78508-135.078236a374.123393 374.123393 0 0 0-30.484791-110.608059z" fill="#B3B3B3" p-id="8457"></path><path d="M397.251021 257.55442a171.631344 171.631344 0 0 1 3.812836-35.47907 286.213346 286.213346 0 0 1 11.70702-41.171474c8.95032-24.57758 22.89492-50.766217 39.542515-70.295816 38.683285-45.431826 99.45596-66.894695 157.973155-67.610721 60.468365-0.733926 124.534758 17.703734 176.929934 48.707644s93.745656 82.199743 110.715464 140.824341c7.625673 26.349743 8.95032 54.47165 6.855945 82.092339-0.26851 3.580128-0.572821 6.999151-1.002436 10.471875 0.358013-2.953606-0.143205 0.877131-0.196907 1.217243-0.358013 2.291282-0.751827 4.582564-1.199343 6.873846a139.338588 139.338588 0 0 1-5.262788 19.690705 62.312131 62.312131 0 0 1-7.160257 14.320513c-0.733926 1.181442-1.503654 2.344984-2.327083 3.454824 2.255481-3.06101-1.790064 1.879567-1.790064 2.022772-0.930833 1.002436-1.897468 1.96907-2.882003 2.917805-0.590721 0.55492-5.101683 4.081346-1.986971 1.790064-9.362035 6.820144-13.9804 18.652468-7.715176 29.392852 5.370192 9.21883 19.977115 14.571122 29.392852 7.697275 47.436698-34.619839 49.817483-103.823717 43.695464-157.203427-8.341699-72.766105-52.50258-140.627434-110.250047-184.376601C779.984622 30.341586 707.469126 7.106554 637.781932 1.074038c-71.262451-6.15782-147.035864 14.463718-200.487178 63.207163-26.958365 24.541779-46.058349 57.013541-60.038749 90.326634-13.640288 32.489663-22.483205 67.59282-22.948621 102.964486-0.358013 27.65649 42.603525 27.674391 42.961538 0zM855.024109 474.474385c6.69484-1.020337-4.260353 0.340112 2.398685-0.340112 2.004872-0.196907 3.991843-0.429615 5.996715-0.590721q5.889311-0.483317 11.760721-0.590721t11.474311 0.196907c1.879567 0.089503 3.741234 0.214808 5.620801 0.375913 0.948734 0 8.95032 1.038237 3.472724 0.26851a158.259565 158.259565 0 0 1 21.194359 4.510962q5.119583 1.485753 10.131763 3.275817c1.66476 0.590721 3.293718 1.270945 4.958477 1.790064 2.255481 0.930833 2.165978 0.877131-0.268509-0.125305l3.204214 1.432052a195.582402 195.582402 0 0 1 18.455561 10.042259c2.971506 1.879567 5.87141 3.830737 8.735513 5.87141 1.432051 1.020337 2.846202 2.076474 4.242452 3.132613-4.099247-3.114712 1.790064 1.575256 2.559791 2.165977a200.612482 200.612482 0 0 1 15.609359 14.606923q3.759135 3.884439 7.303462 7.983686c1.199343 1.378349 2.362885 2.756699 3.580128 4.152948 0.537019 0.644423 5.370192 6.676939 2.327083 2.7925a262.978314 262.978314 0 0 1 24.846089 39.38141q2.595593 5.065881 5.047981 10.257067c0.805529 1.790064 1.611058 3.472724 2.398686 5.209087 0.196907 0.465417 2.738798 6.318926 0.877131 1.933269 3.275817 7.733077 6.175721 15.627259 8.825016 23.593045a357.332592 357.332592 0 0 1 11.742821 45.557131c0.716026 3.848638 1.39625 7.715176 2.004872 11.581714 0.304311 1.933269 0.572821 3.866538 0.85923 5.817708-0.716026-4.976378 0.161106 1.449952 0.232709 2.040673q1.467853 12.530449 2.076474 25.168301a329.550797 329.550797 0 0 1-1.12774 47.562003c-0.179006 1.790064-0.375913 3.723333-0.590722 5.567099 0 0.751827-0.966635 6.909647-0.196907 1.646859-0.537019 3.580128-1.091939 7.26766-1.790064 10.88359a254.726119 254.726119 0 0 1-5.209086 22.805416c-1.790064 6.748542-4.027644 13.425481-6.497933 19.959215-0.626522 1.611058-1.270945 3.204215-1.897468 4.797372-2.058574 5.370192 2.004872-3.973942-0.501218 1.145641-1.790064 3.580128-3.383221 7.26766-5.262788 10.740384a178.326184 178.326184 0 0 1-11.17 18.294455c-1.038237 1.503654-2.094375 2.971506-3.168413 4.439359-0.375913 0.501218-4.135048 5.262788-1.10984 1.503654-2.720897 3.383221-5.495497 6.71274-8.395401 9.952756-22.393702 25.060897-43.480657 40.473349-73.392627 56.494422q-10.865689 5.835609-22.125192 10.740385c-0.232708 0.107404-6.462131 2.738798-2.434487 1.074038-1.915369 0.787628-3.812836 1.557356-5.746106 2.309183q-6.71274 2.631394-13.532884 4.976378a312.205076 312.205076 0 0 1-49.513173 12.530449c-1.986971 0.340112-3.991843 0.644423-5.996714 0.948734-2.559792 0.358013-2.667195 0.375913-0.286411 0-1.324647 0.179006-2.649295 0.322212-3.991843 0.483317q-6.945449 0.751827-13.926698 1.163542a244.182641 244.182641 0 0 1-27.566987 0c-4.510961-0.250609-8.95032-0.698125-13.514984-1.145641-6.336827-0.608622 4.349856 0.805529-1.897468-0.250609-2.52399-0.411715-5.03008-0.805529-7.53617-1.288846a187.473411 187.473411 0 0 1-25.544214-6.712741c-1.790064-0.608622-3.580128-1.235144-5.280689-1.897468l-3.580128-1.360448c2.255481 0.984535 2.255481 0.984535 0 0-3.956042-1.790064-7.876282-3.669631-11.707019-5.728205s-7.571971-4.314054-11.205801-6.69484c-1.575256-1.038237-3.114712-2.094375-4.636266-3.168413-1.020337-0.733926-2.040673-1.467853-3.043109-2.21968 1.790064 1.467853 1.790064 1.432051-0.107404-0.107404a165.222915 165.222915 0 0 1-19.314792-18.634567c-1.288846-1.485753-2.559792-3.007308-3.794936-4.546763-1.539455-1.933269-1.646859-2.058574-0.30431-0.375913l-2.398686-2.953606c-2.756699-3.92024-5.370192-7.983686-7.768878-12.118734-14.069904-23.772051-51.213733-2.183878-37.090128 21.677676 38.880192 65.731153 111.861104 95.016601 186.166664 90.720448 74.788877-4.314054 149.470351-35.801282 204.658027-86.513797a227.338138 227.338138 0 0 0 58.338188-84.437323c12.190336-31.039711 17.345721-65.033028 18.133349-98.256617 1.646859-69.812499-16.379086-143.205127-54.937066-201.829725s-99.706569-100.118284-171.720848-98.113413a242.088266 242.088266 0 0 0-29.643461 3.025209c-11.474311 1.790064-17.900641 16.110577-15.000737 26.421345 3.36532 12.261939 14.911234 16.7729 26.421346 15.000737z" p-id="8458"></path><path d="M380.800332 248.729404c-46.541666-34.959952-105.291569-54.686458-163.665559-48.099022-57.407355 6.480032-113.901778 34.548237-151.224614 79.156634-30.986009 37.018525-51.10633 82.611457-59.985047 129.958652-7.876282 42.102307-9.344135 88.089053 4.689968 129.135223 20.711041 60.593669 69.54399 105.989694 127.09455 131.927723 10.561378 4.76157 23.091827 3.043109 29.374951-7.697276 5.370192-9.200929 2.935705-24.613381-7.697275-29.392852-43.230048-19.493798-80.767691-48.976153-101.604037-92.206201a141.021248 141.021248 0 0 1-9.612645-27.334278q-1.449952-5.889311-2.488189-11.850224c-0.393814-2.201779-0.751827-4.421458-1.056137-6.641138 0.608622 4.403558-0.28641-2.989407-0.393815-4.081346a261.653667 261.653667 0 0 1 1.10984-58.302387c0.322212-2.541891 0-0.322212 0 0.161105a283.879102 283.879102 0 0 1 1.825866-11.134198c0.966635-5.244888 2.058574-10.471875 3.311618-15.64516a293.158795 293.158795 0 0 1 9.254631-31.057612 200.075462 200.075462 0 0 1 11.778622-26.994166 237.111888 237.111888 0 0 1 16.110577-27.029968 172.418972 172.418972 0 0 1 18.741971-22.680112q5.370192-5.370192 10.955192-10.436074a108.066169 108.066169 0 0 1 10.310769-8.252195 206.877706 206.877706 0 0 1 73.875945-33.760609c56.208012-12.834759 112.058012 5.137484 157.525639 39.38141 9.290433 6.98125 24.02266 1.485753 29.392852-7.697275 6.42633-10.990993 1.593157-22.393702-7.697276-29.392853z" p-id="8459"></path><path d="M179.865639 639.034976c-14.141506 60.665272-33.599503 121.813861-22.536907 184.680912 8.592308 48.850849 37.394439 93.477146 76.185127 123.908235 75.469102 59.197419 183.051953 74.30556 275.293956 53.880929 55.02657-12.172436 103.573108-41.171474 137.494822-86.370592 6.963349-9.290433 1.503654-24.004759-7.697276-29.374951-10.973093-6.42633-22.411602-1.611058-29.392852 7.697275-24.130064 32.221153-60.038749 52.717387-98.32822 63.278766-40.330144 11.134199-82.468252 12.172436-125.161281 7.160256-7.410865-0.877131-18.527163-2.864103-27.871297-4.976378a302.198618 302.198618 0 0 1-30.305785-8.538606 230.291744 230.291744 0 0 1-54.042035-26.439246c-32.221153-21.265961-58.051778-53.093301-69.687195-90.702547-18.759872-60.575769 3.687532-123.514422 17.471026-182.729742 2.631394-11.277404-3.580128-23.270833-15.000737-26.421346-10.865689-2.989407-23.772051 3.580128-26.421346 15.000737z" p-id="8460"></path><path d="M936.221415 356.831374s-107.045832 13.586586-135.293043 140.197819c0 0 88.643973-52.377275 175.820094-23.789952 0 0-18.419759-42.961538-46.666971-36.767916 0 0 12.244038-8.162692 6.13992-79.639951zM371.384595 176.947834c41.583189 57.282051 33.366794 58.785704 6.873846 116.497371 0 0-4.940577-24.362772-87.301425-55.617291 0 0 35.174759-22.089391 54.417948-3.06101-16.844503-22.91282 32.364359-49.029855 26.009631-57.81907zM189.460382 634.434512s-23.75415-12.423045-58.803605 39.38141c-26.296041 38.808589-22.930721 37.752451-22.053589 38.217868a15.233445 15.233445 0 0 0 2.201779 1.163541c8.520705 3.383221 41.368381 15.126041 58.714102 2.21968 20.030817-14.893333 20.10242-33.259391 20.102419-33.259391l10.955192-43.426954zM635.275842 823.053564s-4.707869 123.317515-74.269759 159.530511c0 0 62.652243-19.5654 90.129727 30.7354 0 0 32.221153-46.971281 82.611457-36.087692 0 0-93.065432-49.513172-98.471425-154.178219z" fill="#00AC9A" p-id="8461"></path><path d="M502.685795 544.555394c6.71274-1.539455 14.320513 5.889311 18.956779 9.827452 6.784343 5.746106 13.12117 11.331106 17.130913 19.368493 3.150513 6.318926 11.653317 9.200929 18.187051 7.410866 7.357163-2.022772 11.008894-8.413301 11.832324-15.537757s10.453974-12.065032 16.826602-10.543477c20.156122 4.815272 28.76633-26.242339 8.574407-31.075512-28.444118-6.784343-54.382147 13.318077-57.622163 41.618989l30.019375-8.12689c-6.569535-13.174872-18.025945-22.966522-29.482355-31.809439-12.798958-9.881154-26.636154-15.949471-42.961538-12.208237-20.209823 4.618365-11.653317 35.693878 8.556506 31.075512z" p-id="8462"></path><path d="M173.546713 690.767828a46.720673 46.720673 0 0 1-6.623237 5.817709 40.616554 40.616554 0 0 1-15.322949 6.802243c-11.617516 2.434487-22.429503 0-34.011217 2.685096 17.005609 7.518269 41.672692 10.990993 52.216169 4.582564 13.246474-8.037388 17.023509-15.179743 20.317227-25.884326 2.702997-8.789215 4.672067-18.562965 6.909647-27.871298 1.557356-6.569535 3.311619-13.13907 4.439359-19.816009a62.168926 62.168926 0 0 0-5.012179 12.995865 119.27197 119.27197 0 0 1-9.970657 21.80298 87.71314 87.71314 0 0 1-12.942163 18.885176zM663.558854 930.242601c-2.201779-1.790064-4.278253-3.830737-6.247323-5.728205-5.907211-5.692404-9.988558-12.315641-15.000737-18.652468-5.155385 8.305897-9.558942 17.381522-16.110577 24.774487-5.638702 6.444231-13.12117 9.737949-20.800545 13.139071-7.733077 12.208237-14.732227 21.480769-27.370079 32.006345a89.306297 89.306297 0 0 1 27.924999 1.127741c9.988558 1.66476 23.951057 7.392965 31.666234 14.141506 6.444231 5.638702 8.628109 9.129327 13.9625 15.806266 14.052003-15.627259 25.454711-24.667083 44.912707-31.487227a63.744182 63.744182 0 0 1 22.017789-3.580128c-11.366907-7.53617-27.029968-22.178894-37.466042-32.95508-0.680224-0.680224-4.099247-0.877131-5.137483-1.217244a37.680849 37.680849 0 0 1-12.351443-7.375064zM928.774749 439.711341c-20.854247 2.398686-37.841955 9.111426-58.141282 17.130913-16.844503 6.641138-61.775111 25.848525-60.862178 25.383109 7.375064-3.329519 26.54665 0.644423 57.049342-6.999151 40.437548-10.113862 87.122419-8.95032 96.66346-8.95032 1.145641 0-6.444231-11.402708-15.466153-19.189487-6.820144-5.960913-15.233445-7.840481-19.243189-7.375064zM377.560316 276.547c-4.564663-10.400272-18.795673-37.591346-27.692291-44.536794-11.832324-9.236731-47.973717-4.367756-40.77766-2.7746 7.929984 1.790064 17.453125 9.272532 25.508413 16.110577s18.43766 7.858381 26.152836 15.054439c7.231859 6.748542 20.424631 24.326971 16.808702 16.146378z" fill="#017264" p-id="8463"></path><path d="M934.431351 351.335877c-46.953381 6.086218-90.21923 37.98516-115.978252 76.561041-14.320513 21.623974-23.879455 46.291057-29.661361 71.602563-2.058574 8.95032 7.428766 17.023509 15.770464 12.118734 48.797147-28.641025 113.328957-39.918429 167.532097-22.715913 9.863253 3.132612 15.573558-7.858381 12.136635-15.770465-10.095961-23.270833-31.308221-46.541666-58.785705-41.690592l8.270097 19.690705c5.996715-4.18875 8.502804-11.528013 10.07806-18.383958 5.226987-22.823317 3.293718-47.472499 1.37835-70.528525-1.12774-13.67609-22.62641-13.801394-21.480769 0 1.700561 20.353029 3.812836 42.442419-0.161106 62.652243-0.429615 2.23758-1.056138 4.403558-1.628958 6.605336-0.232708 0.805529-0.537019 1.593157-0.841331 2.380785 1.360449-3.580128 0.125304-0.751827 0-0.30431-0.28641 2.022772-2.882003 1.790064 0.214808 0.089503-0.55492 0.304311-3.812836 2.702997 1.539455-1.056138-10.131763 7.160256-3.848638 21.802981 8.287997 19.690705 16.289583-2.935705 29.106442 19.386394 34.512435 31.827339l12.136635-15.788365c-59.483829-18.867275-130.567274-6.551635-184.09019 24.881891l15.788365 12.136634c8.556506-37.376538 25.812724-71.978477 54.937067-97.48689a153.497995 153.497995 0 0 1 59.340624-32.221153c3.150513-0.895032 6.336827-1.700561 9.541042-2.327083 1.790064-0.358013 6.497933-1.002436 1.109839-0.304311 5.799808-0.751827 10.740384-4.403558 10.740385-10.740385 0.107404-5.405994-4.922676-11.671218-10.686683-10.919391zM361.127528 167.532097c12.333542 17.345721 22.447404 36.660512 23.396137 58.320288 0.877131 20.442532-5.674503 40.204839-13.998301 58.588798l16.862404-2.165978c-6.533734-6.963349-14.499519-12.816859-22.089391-18.527163-22.662211-17.005609-47.365096-31.165016-72.497595-44.14298v18.580865c11.205801-7.034952 33.24149-17.900641 44.948509-7.24976a10.829888 10.829888 0 0 0 17.900641-10.453974c-1.879567-8.628109 2.649295-17.900641 6.569535-25.257804a295.109964 295.109964 0 0 1 17.399423-27.65649c7.786779-11.474311-10.829888-22.232596-18.545064-10.847789-13.497083 19.887612-31.666234 43.963974-26.152836 69.472387l17.90064-10.453974c-20.066618-18.204952-50.426105-8.95032-70.97604 3.90234-6.480032 4.081346-7.446667 14.696426 0 18.545064 24.649182 12.727356 48.850849 26.600352 71.155047 43.140544a139.624998 139.624998 0 0 1 19.099984 16.110577c4.349856 4.654167 14.034102 4.081346 16.862403-2.183878 9.863253-21.820881 17.990144-45.127515 16.934006-69.436586-1.10984-25.490513-11.72492-48.61814-26.331842-69.168076-7.840481-11.134199-26.475048-0.411715-18.43766 10.883589zM203.709292 625.16198c-12.870561-6.480032-28.820032-0.805529-39.828925 6.802243-14.714327 10.221266-25.669519 24.523878-35.604375 39.220304-6.802244 10.078061-14.320513 20.281426-19.690705 31.308221-3.580128 7.464567-3.150513 12.745256 2.953606 18.580865 0.769728 0.733926 5.960913 2.7925 0.375913 0.179007 2.076474 0.966635 4.099247 1.986971 6.247324 2.8104a124.606361 124.606361 0 0 0 17.900641 5.370193c14.875433 3.293718 32.221153 4.654167 45.843541-3.580129a58.875208 58.875208 0 0 0 26.242339-36.409903c0.465417-2.201779 0.662324-4.45726 0.930834-6.69484 0.214808-1.790064-1.145641 3.956042 0 0.877132a136.617691 136.617691 0 0 0 3.436923-13.622388l7.160256-28.462019c1.521554-6.032516-1.96907-11.116298-7.500368-13.210673l-11.134199-4.242452c-12.924263-4.940577-18.509263 15.824166-5.710304 20.711042l11.134198 4.242452-7.518269-13.210673c-3.436923 13.640288-7.160256 27.226875-10.32867 40.938765-1.485753 6.42633-0.429615 6.641138-2.846202 12.691555-4.403558 11.062596-14.105705 20.281426-26.242339 21.015352-11.277404 0.680224-22.662211-2.488189-33.205689-6.211522-0.501218-0.179006-3.580128-1.414151-2.488189-0.930834-0.429615-0.179006-0.733926-0.483317-1.145641-0.662323-6.820144-3.025208-0.26851-0.304311-0.161106 0 1.432051 2.828301 4.027644 3.383221 4.940577 8.467003 2.559792 14.320513-0.429615 1.539455-0.232708 2.040673-0.358013-0.948734 1.414151-0.590721 0 0-0.680224 0.26851 0-0.161106 0.859231-1.611058s1.432051-2.613494 2.201778-3.90234c2.685096-4.600465 5.567099-9.075625 8.467004-13.532884 8.556506-13.13907 17.095112-26.492948 28.51572-37.358637 6.283125-5.960913 13.729792-11.617516 22.429503-12.888462-1.449952 0.214808 5.674503-0.375913 2.971507 0 1.539455-0.250609 3.794936 1.628958 0.143205-0.214808 12.351442 6.229423 23.235032-12.27984 10.883589-18.509262zM626.325521 823.053564a272.91317 272.91317 0 0 1-10.185464 61.560304c-9.379936 34.458734-25.848525 71.083445-58.767804 88.697675-10.740384 5.728205-3.401122 23.270833 8.270096 19.690705 28.157708-8.64601 62.168926-2.148077 78.010993 25.794823 4.206651 7.446667 14.105705 6.408429 18.545064 0 0.447516-0.644423 2.094375-2.685096 0.125304-0.232708 1.181442-1.467853 2.362885-2.917804 3.580128-4.331955a99.026345 99.026345 0 0 1 14.069904-13.174872c15.233445-11.492211 33.689006-17.166715 52.681586-13.42548 11.331106 2.23758 19.690705-13.568686 8.270096-19.690705-51.911858-27.781795-89.68221-85.833573-93.083332-144.887787-0.805529-13.747692-22.304198-13.837195-21.480769 0 2.720897 46.255256 21.820881 88.715576 53.182804 122.61939 14.463718 15.64516 31.702035 30.7175 50.605111 40.831361l8.287997-19.690705c-36.839519-7.231859-73.714839 10.668782-94.783893 41.099872h18.545064c-20.263525-35.801282-64.209599-47.365096-102.266361-35.675977l8.270096 19.5654c36.714214-19.690705 56.619727-59.465929 67.664422-97.970207a304.668907 304.668907 0 0 0 11.939727-70.832836c0.55492-13.783493-20.925849-13.783493-21.480769 0.053702z" p-id="8464"></path><path d="M627.614368 827.117009c-5.925112 26.689855-6.891747 48.027419-20.925849 72.998814-6.766442 12.029231 18.849375 23.593045 21.892483 10.095961 5.85351-25.97383 8.3775-51.177932 15.698862-76.775848 3.794936-13.371779-13.67609-19.869711-16.665496-6.318927z" p-id="8465"></path></svg>